<?xml version="1.0" encoding="UTF-8" standalone="no"?>
<!-- Created with Inkscape (http://www.inkscape.org/) -->

<svg
   width="120"
   height="120"
   viewBox="0 0 120 120"
   version="1.1"
   id="svg1"
   xml:space="preserve"
   sodipodi:docname="logo.svg"
   xmlns:inkscape="http://www.inkscape.org/namespaces/inkscape"
   xmlns:sodipodi="http://sodipodi.sourceforge.net/DTD/sodipodi-0.dtd"
   xmlns="http://www.w3.org/2000/svg"
   xmlns:svg="http://www.w3.org/2000/svg"><sodipodi:namedview
     id="namedview1"
     pagecolor="#505050"
     bordercolor="#ffffff"
     borderopacity="1"
     inkscape:showpageshadow="0"
     inkscape:pageopacity="0"
     inkscape:pagecheckerboard="1"
     inkscape:deskcolor="#505050"
     inkscape:document-units="px"
     showgrid="false" /><defs
     id="defs1" /><g
     inkscape:label="Capa 1"
     inkscape:groupmode="layer"
     id="layer1"><g
       id="g1"
       transform="translate(-0.94302554,-0.23575639)"><path
         style="opacity:0.890845;fill:#ffff00;fill-opacity:1;stroke:#0a0d3f;stroke-width:0;stroke-dasharray:none;stroke-opacity:1"
         d="M 6.2676745,78.298228 C 13.478681,104.6149 39.7524,110.38751 68.744123,97.474813 84.163263,78.646187 102.19296,62.187653 115.91529,60.372896 119.59346,38.505216 104.71094,1.6786588 58.789083,2.2829422 12.867221,2.8872265 -0.94333378,51.981539 6.2676745,78.298228 Z"
         id="path8"
         sodipodi:nodetypes="zcczz" /><path
         style="opacity:0.890845;fill:#d40000;fill-opacity:1;stroke:none;stroke-width:0.936677"
         d="M 5.9468096,77.776036 C 21.582008,111.10661 64.22356,94.182871 65.136887,95.90112 84.253133,69.930567 101.95684,58.625865 114.21084,58.744711 119.57655,-5.5669334 -3.3570991,-18.10313 5.9468096,77.776036 Z"
         id="path1"
         sodipodi:nodetypes="cccc" /><path
         style="fill:#1c1caa;fill-opacity:1;stroke:none;stroke-width:0;stroke-dasharray:none;stroke-opacity:1"
         d="m 10.695942,116.63126 100.032948,-0.56205 c 3.46451,-1.13307 6.67358,-4.11823 6.52904,-10.0786 l 0.8931,-35.625358 C 117.12757,64.429677 115.58014,60.750707 113.39789,58.302485 94.909718,56.171187 71.181027,87.987152 63.326474,95.756348 29.493139,103.82852 10.209014,91.336058 4.8513305,73.739875 L 3.2635188,85.708813 3.9341997,106.28717 c 1.3485674,4.73384 3.7569475,9.08421 6.7617423,10.34409 z"
         id="path7"
         sodipodi:nodetypes="cccccccccc" /><text
         xml:space="preserve"
         style="font-size:32.8251px;fill:#e1e1e1;fill-opacity:1;stroke:#0c0f4a;stroke-width:0.850731;stroke-dasharray:none;stroke-opacity:1"
         x="17.817371"
         y="70.576317"
         id="text7"
         transform="scale(0.71109367,1.4062845)"><tspan
           sodipodi:role="line"
           id="tspan7"
           x="17.817371"
           y="70.576317"
           style="font-style:normal;font-variant:normal;font-weight:normal;font-stretch:normal;font-family:'Arial Rounded MT Bold';-inkscape-font-specification:'Arial Rounded MT Bold, ';fill:#e1e1e1;fill-opacity:1;stroke:#0c0f4a;stroke-width:0.850731;stroke-dasharray:none;stroke-opacity:1">Filipinas</tspan></text></g></g></svg>
