<?xml version="1.0" encoding="UTF-8" standalone="no"?>
<!-- Created with Inkscape (http://www.inkscape.org/) -->

<svg
   width="1920"
   height="1080"
   viewBox="0 0 1920 1080"
   version="1.1"
   id="svg1"
   xml:space="preserve"
   inkscape:export-filename="logo 2.svg"
   inkscape:export-xdpi="96"
   inkscape:export-ydpi="96"
   xmlns:inkscape="http://www.inkscape.org/namespaces/inkscape"
   xmlns:sodipodi="http://sodipodi.sourceforge.net/DTD/sodipodi-0.dtd"
   xmlns="http://www.w3.org/2000/svg"
   xmlns:svg="http://www.w3.org/2000/svg"><sodipodi:namedview
     id="namedview1"
     pagecolor="#505050"
     bordercolor="#ffffff"
     borderopacity="1"
     inkscape:showpageshadow="0"
     inkscape:pageopacity="0"
     inkscape:pagecheckerboard="1"
     inkscape:deskcolor="#505050"
     inkscape:document-units="px" /><defs
     id="defs1" /><g
     inkscape:label="Capa 1"
     inkscape:groupmode="layer"
     id="layer1"><g
       id="g1"><path
         style="opacity:0.890845;fill:#ffff00;fill-opacity:1;stroke:#0a0d3f;stroke-width:0;stroke-dasharray:none;stroke-opacity:1"
         d="M 55.010805,711.166 C 123.3895,949.53871 372.53121,1001.8262 647.44656,884.86482 793.65922,714.31776 964.62661,565.23866 1094.7492,548.80084 1129.6275,350.72647 988.5034,17.156674 553.0474,22.63019 117.5913,28.103706 -13.367888,472.79312 55.010805,711.166 Z"
         id="path8"
         sodipodi:nodetypes="zcczz" /><path
         style="opacity:0.890845;fill:#d40000;fill-opacity:1;stroke:none;stroke-width:7.80013"
         d="M 111.95676,778.52334 C 252.73433,981.76361 598.42053,856.62268 606.20247,870.6072 769.08092,659.23736 919.92399,567.23036 1024.3333,568.19761 1070.0514,44.776273 32.683536,-1.8205841 111.95676,778.52334 Z"
         id="path1"
         sodipodi:nodetypes="cccc" /><path
         style="fill:#1c1caa;fill-opacity:1;stroke:none;stroke-width:0;stroke-dasharray:none;stroke-opacity:1"
         d="m 97.002065,1058.3812 948.566835,-5.091 c 32.8523,-10.2632 63.2825,-37.3023 61.9119,-91.29048 l 8.4688,-322.68952 C 1106.2447,585.54661 1091.5711,552.223 1070.8778,530.04735 895.56285,510.74235 670.5546,798.92691 596.07342,869.29919 275.24731,942.4158 92.384748,829.26083 41.580259,669.87708 l -15.056486,108.41296 6.35976,186.39587 c 12.787853,42.87839 35.625428,82.28349 64.118532,93.69529 z"
         id="path7"
         sodipodi:nodetypes="cccccccccc" /><text
         xml:space="preserve"
         style="font-size:564.534px;fill:#e1e1e1;fill-opacity:1;stroke:#0a0a14;stroke-width:14.631;stroke-dasharray:none;stroke-opacity:1"
         x="387.47626"
         y="552.77368"
         id="text7"
         transform="scale(0.70495527,1.4185297)"><tspan
           sodipodi:role="line"
           id="tspan7"
           x="387.47626"
           y="552.77368"
           style="font-style:normal;font-variant:normal;font-weight:normal;font-stretch:normal;font-family:'Arial Rounded MT Bold';-inkscape-font-specification:'Arial Rounded MT Bold, ';fill:#e1e1e1;fill-opacity:1;stroke:#0a0a14;stroke-width:14.631;stroke-dasharray:none;stroke-opacity:1">Filipinas</tspan></text></g></g></svg>
