<?xml version="1.0" encoding="UTF-8" standalone="no"?>
<!-- Created with Inkscape (http://www.inkscape.org/) -->

<svg
   width="120"
   height="120"
   viewBox="0 0 120 120"
   version="1.1"
   id="svg1"
   xml:space="preserve"
   xmlns:inkscape="http://www.inkscape.org/namespaces/inkscape"
   xmlns:sodipodi="http://sodipodi.sourceforge.net/DTD/sodipodi-0.dtd"
   xmlns:xlink="http://www.w3.org/1999/xlink"
   xmlns="http://www.w3.org/2000/svg"
   xmlns:svg="http://www.w3.org/2000/svg"><sodipodi:namedview
     id="namedview1"
     pagecolor="#505050"
     bordercolor="#ffffff"
     borderopacity="1"
     inkscape:showpageshadow="0"
     inkscape:pageopacity="0"
     inkscape:pagecheckerboard="1"
     inkscape:deskcolor="#505050"
     inkscape:document-units="px" /><defs
     id="defs1"><linearGradient
       id="linearGradient9"
       inkscape:collect="always"><stop
         style="stop-color:#ffff00;stop-opacity:1;"
         offset="0"
         id="stop9" /><stop
         style="stop-color:#ffff00;stop-opacity:0;"
         offset="1"
         id="stop10" /></linearGradient><linearGradient
       inkscape:collect="always"
       xlink:href="#linearGradient9"
       id="linearGradient10"
       x1="47.010792"
       y1="30.673708"
       x2="75.350632"
       y2="99.689552"
       gradientUnits="userSpaceOnUse"
       gradientTransform="matrix(1.0122548,0,0,1.0188802,-0.91465261,-2.3507782)" /></defs><g
     inkscape:label="Capa 1"
     inkscape:groupmode="layer"
     id="layer1"><g
       id="g2"
       transform="translate(1.4145383,0.70726916)"><path
         style="fill:#1c1caa;fill-opacity:1;stroke:none;stroke-width:0;stroke-dasharray:none;stroke-opacity:1"
         d="M 9.2814038,115.92399 109.31435,115.36194 c 3.46451,-1.13307 6.67358,-4.11823 6.52904,-10.0786 l 0.8931,-35.625357 C 115.71303,63.722408 114.1656,60.043438 111.98335,57.595216 93.49518,55.463918 69.766489,87.279883 61.911936,95.049079 28.078601,103.12125 8.7944759,90.628789 3.4367922,73.032606 L 1.8489805,85.001544 2.5196614,105.5799 c 1.3485674,4.73384 3.7569475,9.08421 6.7617424,10.34409 z"
         id="path7"
         sodipodi:nodetypes="cccccccccc" /><g
         id="g1"><path
           style="opacity:0.890845;fill:url(#linearGradient10);fill-opacity:1;stroke:#0a0d3f;stroke-width:0;stroke-dasharray:none;stroke-opacity:1"
           d="M 4.8227749,76.46072 C 11.912334,102.33417 37.743553,108.00955 66.247,95.314334 81.406452,76.802819 99.132491,60.621478 112.62371,58.837285 116.23993,37.337899 101.60806,1.1315719 56.459622,1.7256779 11.311173,2.3197849 -2.2667861,50.587255 4.8227749,76.46072 Z"
           id="path8"
           sodipodi:nodetypes="zcczz" /><path
           style="opacity:0.890845;fill:#d40000;fill-opacity:1;stroke:none;stroke-width:0.936677"
           d="M 4.0607585,77.068767 C 19.695958,110.39934 62.33751,93.475602 63.250837,95.193851 82.367083,69.223298 100.07078,57.918596 112.32478,58.037442 117.69049,-6.2742026 -5.2431502,-18.810399 4.0607585,77.068767 Z"
           id="path1"
           sodipodi:nodetypes="cccc" /></g><text
         xml:space="preserve"
         style="font-size:32.8251px;fill:#e1e1e1;fill-opacity:1;stroke:#0c0f4a;stroke-width:0.850731;stroke-dasharray:none;stroke-opacity:1"
         x="15.828129"
         y="70.07338"
         id="text7"
         transform="scale(0.71109367,1.4062845)"><tspan
           sodipodi:role="line"
           id="tspan7"
           x="15.828129"
           y="70.07338"
           style="font-style:normal;font-variant:normal;font-weight:normal;font-stretch:normal;font-family:'Arial Rounded MT Bold';-inkscape-font-specification:'Arial Rounded MT Bold, ';fill:#e1e1e1;fill-opacity:1;stroke:#0c0f4a;stroke-width:0.850731;stroke-dasharray:none;stroke-opacity:1">Filipinas</tspan></text></g></g></svg>
